<svg width="17" height="16" viewBox="0 0 17 16" fill="none" xmlns="http://www.w3.org/2000/svg">
<path d="M0.878784 1.13647H5.42424C6.22792 1.13647 6.99869 1.45574 7.56699 2.02403C8.13528 2.59232 8.45454 3.36309 8.45454 4.16678V14.7728C8.45454 14.1701 8.21509 13.592 7.78888 13.1658C7.36266 12.7396 6.78458 12.5001 6.18181 12.5001H0.878784V1.13647Z" stroke="#495ECA" stroke-linecap="round" stroke-linejoin="round"/>
<path d="M16.0303 1.13647H11.4848C10.6811 1.13647 9.91038 1.45574 9.34208 2.02403C8.77379 2.59232 8.45453 3.36309 8.45453 4.16678V14.7728C8.45453 14.1701 8.69398 13.592 9.1202 13.1658C9.54641 12.7396 10.1245 12.5001 10.7273 12.5001H16.0303V1.13647Z" stroke="#495ECA" stroke-linecap="round" stroke-linejoin="round"/>
</svg>
