<svg width="16" height="15" viewBox="0 0 16 15" fill="none" xmlns="http://www.w3.org/2000/svg">
<path d="M7.27642 2.28056H2.70114C2.35445 2.28056 2.02195 2.41829 1.7768 2.66344C1.53165 2.90859 1.39392 3.24109 1.39392 3.58778V12.7383C1.39392 13.085 1.53165 13.4175 1.7768 13.6627C2.02195 13.9078 2.35445 14.0456 2.70114 14.0456H11.8517C12.1984 14.0456 12.5309 13.9078 12.776 13.6627C13.0212 13.4175 13.1589 13.085 13.1589 12.7383V8.16306M12.1785 1.30014C12.4385 1.04012 12.7912 0.894043 13.1589 0.894043C13.5266 0.894043 13.8793 1.04012 14.1393 1.30014C14.3994 1.56017 14.5454 1.91283 14.5454 2.28056C14.5454 2.64829 14.3994 3.00095 14.1393 3.26098L7.93003 9.47028L5.31559 10.1239L5.9692 7.50945L12.1785 1.30014Z" stroke="#495ECA" stroke-linecap="round" stroke-linejoin="round"/>
</svg>
