<svg width="16" height="15" viewBox="0 0 16 15" fill="none" xmlns="http://www.w3.org/2000/svg">
<path d="M6.63409 8.18644C6.92886 8.58051 7.30493 8.90658 7.7368 9.14253C8.16866 9.37848 8.64622 9.51878 9.13708 9.55394C9.62794 9.58909 10.1206 9.51827 10.5817 9.34627C11.0428 9.17428 11.4615 8.90513 11.8094 8.55709L13.8685 6.49795C14.4937 5.85069 14.8396 4.98379 14.8318 4.08396C14.8239 3.18412 14.463 2.32336 13.8267 1.68706C13.1904 1.05076 12.3297 0.689834 11.4298 0.682015C10.53 0.674195 9.66309 1.02011 9.01583 1.64526L7.83526 2.81896" stroke="#495ECA" stroke-linecap="round" stroke-linejoin="round"/>
<path d="M9.37963 6.81376C9.08486 6.41969 8.70879 6.09363 8.27692 5.85768C7.84506 5.62173 7.3675 5.48142 6.87664 5.44627C6.38578 5.41111 5.89311 5.48194 5.43203 5.65393C4.97095 5.82593 4.55225 6.09508 4.20433 6.44312L2.1452 8.50225C1.52005 9.14952 1.17413 10.0164 1.18195 10.9163C1.18977 11.8161 1.5507 12.6768 2.187 13.3131C2.8233 13.9494 3.68406 14.3104 4.5839 14.3182C5.48373 14.326 6.35063 13.9801 6.99789 13.355L8.1716 12.1812" stroke="#495ECA" stroke-linecap="round" stroke-linejoin="round"/>
</svg>
