<svg width="15" height="16" viewBox="0 0 15 16" fill="none" xmlns="http://www.w3.org/2000/svg">
<path d="M5.27277 12.5001V2.65163L14.3637 1.13647V10.985" stroke="#495ECA" stroke-linecap="round" stroke-linejoin="round"/>
<path d="M3.00002 14.7728C4.25521 14.7728 5.27275 13.7552 5.27275 12.5C5.27275 11.2448 4.25521 10.2273 3.00002 10.2273C1.74483 10.2273 0.727295 11.2448 0.727295 12.5C0.727295 13.7552 1.74483 14.7728 3.00002 14.7728Z" stroke="#495ECA" stroke-linecap="round" stroke-linejoin="round"/>
<path d="M12.0909 13.2576C13.3461 13.2576 14.3636 12.2401 14.3636 10.9849C14.3636 9.72969 13.3461 8.71216 12.0909 8.71216C10.8357 8.71216 9.81818 9.72969 9.81818 10.9849C9.81818 12.2401 10.8357 13.2576 12.0909 13.2576Z" stroke="#495ECA" stroke-linecap="round" stroke-linejoin="round"/>
</svg>
