<svg width="14" height="16" viewBox="0 0 14 16" fill="none" xmlns="http://www.w3.org/2000/svg">
<path opacity="0.5" d="M4.72667 9.03539L9.28 11.7645M9.27333 4.23539L4.72667 6.96454M13 3.19997C13 4.33609 12.1046 5.25711 11 5.25711C9.89543 5.25711 9 4.33609 9 3.19997C9 2.06384 9.89543 1.14282 11 1.14282C12.1046 1.14282 13 2.06384 13 3.19997ZM5 7.99997C5 9.13609 4.10457 10.0571 3 10.0571C1.89543 10.0571 1 9.13609 1 7.99997C1 6.86384 1.89543 5.94282 3 5.94282C4.10457 5.94282 5 6.86384 5 7.99997ZM13 12.8C13 13.9361 12.1046 14.8571 11 14.8571C9.89543 14.8571 9 13.9361 9 12.8C9 11.6638 9.89543 10.7428 11 10.7428C12.1046 10.7428 13 11.6638 13 12.8Z" stroke="#97A1D7" stroke-linecap="round" stroke-linejoin="round"/>
</svg>
